<?xml version="1.0" encoding="UTF-8" standalone="no"?>
<!-- Created with Inkscape (http://www.inkscape.org/) -->

<svg
   width="320"
   height="32"
   viewBox="0 0 84.666665 8.4666665"
   version="1.1"
   id="svg5"
   inkscape:version="1.1.1 (3bf5ae0d25, 2021-09-20)"
   sodipodi:docname="app_url.svg"
   xmlns:inkscape="http://www.inkscape.org/namespaces/inkscape"
   xmlns:sodipodi="http://sodipodi.sourceforge.net/DTD/sodipodi-0.dtd"
   xmlns="http://www.w3.org/2000/svg"
   xmlns:svg="http://www.w3.org/2000/svg">
  <sodipodi:namedview
     id="namedview7"
     pagecolor="#000000"
     bordercolor="#666666"
     borderopacity="1.0"
     inkscape:pageshadow="2"
     inkscape:pageopacity="0"
     inkscape:pagecheckerboard="0"
     inkscape:document-units="px"
     showgrid="true"
     units="px"
     inkscape:snap-page="true"
     inkscape:zoom="8"
     inkscape:cx="36.1875"
     inkscape:cy="27.9375"
     inkscape:window-width="1920"
     inkscape:window-height="1017"
     inkscape:window-x="-8"
     inkscape:window-y="-8"
     inkscape:window-maximized="1"
     inkscape:current-layer="layer1">
    <inkscape:grid
       type="xygrid"
       id="grid925"
       spacingx="1.0583333"
       spacingy="1.0583333"
       empspacing="4" />
  </sodipodi:namedview>
  <defs
     id="defs2" />
  <g
     inkscape:label="Layer 1"
     inkscape:groupmode="layer"
     id="layer1">
    <g
       aria-label="https://asatsuki.github.io/Exe6NCTool/"
       id="text4953"
       style="font-weight:500;font-size:4.23333px;line-height:1.25;font-family:'M+ 1c';-inkscape-font-specification:'M+ 1c Medium';fill:#ffffff;stroke-width:0.264583">
      <path
         d="M 2.7904,5.4676155 V 6.7799478 H 2.3543671 V 5.5522821 q 0,-0.3936996 -0.093133,-0.5249329 -0.0889,-0.1312332 -0.3386664,-0.1312332 -0.1947331,0 -0.372533,0.1862665 -0.1777998,0.1820332 -0.1777998,0.385233 V 6.7799478 H 0.92773495 V 3.6049504 H 1.3722346 v 1.2488323 h 0.00847 Q 1.672801,4.536283 2.0495673,4.536283 q 0.385233,0 0.5630329,0.2158998 Q 2.7904,4.9638493 2.7904,5.4676155 Z"
         id="path9633" />
      <path
         d="M 4.0773288,4.6632829 H 4.8393281 V 5.0019493 H 4.0773288 v 1.0159991 q 0,0.2878664 0.067733,0.3767663 0.067733,0.0889 0.2709331,0.0889 0.1904999,0 0.3598331,-0.055033 v 0.3513664 q -0.2074332,0.042333 -0.4444996,0.042333 -0.3894664,0 -0.5460996,-0.1650999 Q 3.6328291,6.4920813 3.6328291,6.0602817 V 5.0019493 H 3.1883295 V 4.6632829 H 3.6328291 V 3.8589502 h 0.4444997 z"
         id="path9635" />
      <path
         d="M 6.1474203,4.6632829 H 6.9094196 V 5.0019493 H 6.1474203 v 1.0159991 q 0,0.2878664 0.067733,0.3767663 0.067733,0.0889 0.2709331,0.0889 0.1904999,0 0.3598331,-0.055033 v 0.3513664 q -0.2074332,0.042333 -0.4444997,0.042333 -0.3894663,0 -0.5460995,-0.1650999 Q 5.7029206,6.4920813 5.7029206,6.0602817 V 5.0019493 H 5.258421 V 4.6632829 H 5.7029206 V 3.8589502 h 0.4444997 z"
         id="path9637" />
      <path
         d="m 7.9635138,5.9967817 q 0,0.1947332 0.1608665,0.3428998 0.1650998,0.1439332 0.3894663,0.1439332 0.2539998,0 0.4021664,-0.2031999 0.1481665,-0.2031998 0.1481665,-0.6011328 0,-0.8043326 -0.5503329,-0.8043326 -0.2243665,0 -0.3894663,0.1481665 Q 7.9635138,5.1670491 7.9635138,5.3617823 Z M 9.5086791,5.679282 q 0,0.5249329 -0.2539998,0.833966 -0.2497664,0.3090331 -0.6349994,0.3090331 -0.3725331,0 -0.6476995,-0.2751665 h -0.00847 V 7.7112803 H 7.5190141 v -3.132664 h 0.4148663 l 0.00847,0.2751664 h 0.00847 Q 8.1116803,4.6759829 8.2598468,4.6082496 8.4122467,4.536283 8.6196799,4.536283 q 0.4021663,0 0.6434661,0.3005664 0.2455331,0.3005664 0.2455331,0.8424326 z"
         id="path9639" />
      <path
         d="m 10.816777,4.8749494 q -0.4445,0 -0.4445,0.2539997 0,0.1269999 0.08467,0.2074332 0.08467,0.080433 0.296333,0.1312332 0.486833,0.1142999 0.656166,0.2751665 0.169333,0.1566332 0.169333,0.4656662 0,0.2878665 -0.224366,0.4529663 -0.220133,0.1608666 -0.643466,0.1608666 -0.389467,0 -0.7196665,-0.1269999 V 6.3354481 q 0.3301995,0.1481666 0.6773325,0.1481666 0.465667,0 0.465667,-0.2751665 0,-0.1312332 -0.09313,-0.2116665 -0.09313,-0.084666 -0.330199,-0.1481665 -0.4318,-0.1058332 -0.6096,-0.2666998 -0.1735665,-0.1650998 -0.1735665,-0.410633 0,-0.296333 0.2116665,-0.4656662 0.2159,-0.1693332 0.634999,-0.1693332 0.364067,0 0.719667,0.1058332 V 5.0019493 Q 11.142743,4.8749494 10.816777,4.8749494 Z"
         id="path9641" />
      <path
         d="M 12.33654,5.1289491 V 4.4939497 h 0.550333 v 0.6349994 z m 0,1.6509987 V 6.1449483 h 0.550333 v 0.6349995 z"
         id="path9643" />
      <path
         d="M 15.316797,3.689617 13.856298,6.9492809 H 13.411799 L 14.872297,3.689617 Z"
         id="path9645" />
      <path
         d="M 16.878885,3.689617 15.418386,6.9492809 H 14.973887 L 16.434385,3.689617 Z"
         id="path9647" />
      <path
         d="m 17.848311,4.536283 q 0.5334,0 0.732366,0.1904998 0.198967,0.1904999 0.198967,0.6984994 v 1.3546656 h -0.414866 l -0.0085,-0.3174998 h -0.0085 q -0.245533,0.3598331 -0.732366,0.3598331 -0.287866,0 -0.474133,-0.1862666 -0.182033,-0.1862665 -0.182033,-0.4910662 0,-0.372533 0.283633,-0.5757329 0.283633,-0.2074331 0.859366,-0.2074331 h 0.232833 v -0.084667 q 0,-0.2243665 -0.105833,-0.3132664 -0.105833,-0.0889 -0.381,-0.0889 -0.330199,0 -0.761999,0.1608665 v -0.372533 q 0.3937,-0.1269999 0.761999,-0.1269999 z m 0.486833,1.1345324 h -0.232833 q -0.347133,0 -0.524933,0.1185332 -0.173566,0.1142999 -0.173566,0.3132664 0,0.1566332 0.09313,0.2582331 0.09313,0.1015999 0.224366,0.1015999 0.2794,0 0.4445,-0.1735665 0.169333,-0.1777998 0.169333,-0.4825996 z"
         id="path9649" />
      <path
         d="m 20.151236,4.8749494 q -0.4445,0 -0.4445,0.2539997 0,0.1269999 0.08467,0.2074332 0.08467,0.080433 0.296333,0.1312332 0.486833,0.1142999 0.656166,0.2751665 0.169333,0.1566332 0.169333,0.4656662 0,0.2878665 -0.224366,0.4529663 -0.220133,0.1608666 -0.643466,0.1608666 -0.389467,0 -0.719666,-0.1269999 V 6.3354481 q 0.330199,0.1481666 0.677333,0.1481666 0.465666,0 0.465666,-0.2751665 0,-0.1312332 -0.09313,-0.2116665 -0.09313,-0.084666 -0.3302,-0.1481665 -0.4318,-0.1058332 -0.6096,-0.2666998 -0.173566,-0.1650998 -0.173566,-0.410633 0,-0.296333 0.211666,-0.4656662 0.2159,-0.1693332 0.635,-0.1693332 0.364066,0 0.719666,0.1058332 V 5.0019493 Q 20.477202,4.8749494 20.151236,4.8749494 Z"
         id="path9651" />
      <path
         d="m 22.242499,4.536283 q 0.5334,0 0.732366,0.1904998 0.198967,0.1904999 0.198967,0.6984994 v 1.3546656 h -0.414867 l -0.0085,-0.3174998 h -0.0085 q -0.245533,0.3598331 -0.732366,0.3598331 -0.287866,0 -0.474133,-0.1862666 Q 21.3535,6.449748 21.3535,6.1449483 q 0,-0.372533 0.283633,-0.5757329 0.283633,-0.2074331 0.859366,-0.2074331 h 0.232833 v -0.084667 q 0,-0.2243665 -0.105833,-0.3132664 -0.105833,-0.0889 -0.381,-0.0889 -0.3302,0 -0.761999,0.1608665 V 4.6632829 Q 21.8742,4.536283 22.242499,4.536283 Z m 0.486833,1.1345324 h -0.232833 q -0.347133,0 -0.524933,0.1185332 Q 21.798,5.9036485 21.798,6.102615 q 0,0.1566332 0.09313,0.2582331 0.09313,0.1015999 0.224366,0.1015999 0.2794,0 0.4445,-0.1735665 0.169333,-0.1777998 0.169333,-0.4825996 z"
         id="path9653" />
      <path
         d="m 24.418423,4.6632829 h 0.762 v 0.3386664 h -0.762 v 1.0159991 q 0,0.2878664 0.06773,0.3767663 0.06773,0.0889 0.270933,0.0889 0.1905,0 0.359833,-0.055033 v 0.3513664 q -0.207433,0.042333 -0.4445,0.042333 -0.389466,0 -0.546099,-0.1650999 -0.1524,-0.1650999 -0.1524,-0.5968995 V 5.0019493 h -0.4445 V 4.6632829 h 0.4445 V 3.8589502 h 0.444499 z"
         id="path9655" />
      <path
         d="m 26.573182,4.8749494 q -0.4445,0 -0.4445,0.2539997 0,0.1269999 0.08467,0.2074332 0.08467,0.080433 0.296333,0.1312332 0.486833,0.1142999 0.656166,0.2751665 0.169333,0.1566332 0.169333,0.4656662 0,0.2878665 -0.224366,0.4529663 -0.220134,0.1608666 -0.643467,0.1608666 -0.389466,0 -0.719666,-0.1269999 V 6.3354481 q 0.3302,0.1481666 0.677333,0.1481666 0.465666,0 0.465666,-0.2751665 0,-0.1312332 -0.09313,-0.2116665 -0.09313,-0.084666 -0.3302,-0.1481665 -0.431799,-0.1058332 -0.609599,-0.2666998 -0.173567,-0.1650998 -0.173567,-0.410633 0,-0.296333 0.211667,-0.4656662 0.2159,-0.1693332 0.634999,-0.1693332 0.364067,0 0.719666,0.1058332 V 5.0019493 Q 26.899148,4.8749494 26.573182,4.8749494 Z"
         id="path9657" />
      <path
         d="m 29.269813,6.5047813 q -0.3048,0.3174998 -0.690033,0.3174998 -0.372533,0 -0.546099,-0.2031999 Q 27.860114,6.4116481 27.860114,5.9332818 V 4.5786163 h 0.436033 v 1.2911656 q 0,0.3513663 0.09313,0.4825996 0.09313,0.1312332 0.3175,0.1312332 0.198966,0 0.372533,-0.1735665 0.1778,-0.1777999 0.1778,-0.3767664 V 4.5786163 h 0.444499 v 2.2013315 h -0.414866 l -0.0085,-0.2751665 z"
         id="path9659" />
      <path
         d="m 30.785341,5.7216153 h -0.0085 v 1.0583325 h -0.4445 V 3.6049504 h 0.4445 v 1.9473317 h 0.0085 l 0.922866,-0.9736658 h 0.529167 l -1.016,1.0583324 1.016,1.1429991 h -0.529167 z"
         id="path9661" />
      <path
         d="M 32.868133,6.7799478 V 4.5786163 h 0.465666 v 2.2013315 z m 0,-2.7093311 V 3.6049504 h 0.465666 v 0.4656663 z"
         id="path9663" />
      <path
         d="M 34.176229,6.7799478 V 6.1449483 h 0.550333 v 0.6349995 z"
         id="path9665" />
      <path
         d="M 36.754324,5.9121152 V 5.4041156 q 0,-0.2116665 -0.156633,-0.3682997 -0.156633,-0.1608665 -0.372533,-0.1608665 -0.529166,0 -0.529166,0.7619993 0,0.4063997 0.1397,0.6053662 0.143933,0.1989665 0.389466,0.1989665 0.2159,0 0.372533,-0.1566332 0.156633,-0.1608666 0.156633,-0.372533 z M 35.251492,5.6369487 q 0,-0.5249329 0.224367,-0.8127993 0.224366,-0.2878664 0.622299,-0.2878664 0.207433,0 0.3556,0.071967 0.1524,0.067733 0.313266,0.2455331 h 0.0085 l 0.0085,-0.2751664 h 0.414866 v 2.0531649 q 0,0.5757329 -0.258233,0.846666 -0.258233,0.2751664 -0.8001,0.2751664 -0.330199,0 -0.634999,-0.084667 V 7.2879473 q 0.300566,0.1269999 0.634999,0.1269999 0.321734,0 0.465667,-0.1820332 0.148166,-0.1777998 0.148166,-0.5799661 V 6.5047813 h -0.0085 q -0.275167,0.2751665 -0.6477,0.2751665 -0.372533,0 -0.609599,-0.3005665 -0.237067,-0.3005664 -0.237067,-0.8424326 z"
         id="path9667" />
      <path
         d="M 37.956586,6.7799478 V 4.5786163 h 0.465667 v 2.2013315 z m 0,-2.7093311 V 3.6049504 h 0.465667 v 0.4656663 z"
         id="path9669" />
      <path
         d="m 39.963183,4.6632829 h 0.762 v 0.3386664 h -0.762 v 1.0159991 q 0,0.2878664 0.06773,0.3767663 0.06773,0.0889 0.270933,0.0889 0.190499,0 0.359833,-0.055033 v 0.3513664 q -0.207433,0.042333 -0.4445,0.042333 -0.389466,0 -0.5461,-0.1650999 Q 39.518684,6.4920813 39.518684,6.0602817 V 5.0019493 h -0.4445 V 4.6632829 h 0.4445 V 3.8589502 h 0.444499 z"
         id="path9671" />
      <path
         d="M 43.218607,5.4676155 V 6.7799478 H 42.782574 V 5.5522821 q 0,-0.3936996 -0.09313,-0.5249329 -0.0889,-0.1312332 -0.338666,-0.1312332 -0.194733,0 -0.372533,0.1862665 -0.1778,0.1820332 -0.1778,0.385233 v 1.3123323 h -0.4445 V 3.6049504 h 0.4445 v 1.2488323 h 0.0085 q 0.292099,-0.3174997 0.668866,-0.3174997 0.385233,0 0.563033,0.2158998 0.177799,0.2116665 0.177799,0.7154327 z"
         id="path9673" />
      <path
         d="m 45.195571,6.5047813 q -0.3048,0.3174998 -0.690033,0.3174998 -0.372533,0 -0.546099,-0.2031999 Q 43.785872,6.4116481 43.785872,5.9332818 V 4.5786163 h 0.436033 v 1.2911656 q 0,0.3513663 0.09313,0.4825996 0.09313,0.1312332 0.317499,0.1312332 0.198967,0 0.372533,-0.1735665 0.1778,-0.1777999 0.1778,-0.3767664 V 4.5786163 h 0.4445 v 2.2013315 h -0.414866 l -0.0085,-0.2751665 z"
         id="path9675" />
      <path
         d="m 46.702633,5.9967817 q 0,0.1904999 0.160867,0.3386664 0.1651,0.1481666 0.389466,0.1481666 0.258233,0 0.402166,-0.1989665 0.148167,-0.1989665 0.148167,-0.6053662 0,-0.8043326 -0.550333,-0.8043326 -0.224366,0 -0.389466,0.1481665 -0.160867,0.1481665 -0.160867,0.3386664 z M 48.247798,5.679282 q 0,0.5249329 -0.253999,0.833966 -0.249767,0.3090331 -0.635,0.3090331 -0.207433,0 -0.359833,-0.067733 Q 46.8508,6.6825812 46.689933,6.5047813 h -0.0085 L 46.673,6.7799478 H 46.258134 V 3.6049504 h 0.444499 v 1.206499 h 0.0085 q 0.275166,-0.2751664 0.647699,-0.2751664 0.402167,0 0.643466,0.3005664 0.245533,0.3005664 0.245533,0.8424326 z"
         id="path9677" />
      <path
         d="M 48.772725,6.7799478 V 6.1449483 h 0.550333 v 0.6349995 z"
         id="path9679" />
      <path
         d="M 50.165487,6.7799478 V 4.5786163 h 0.465666 v 2.2013315 z m 0,-2.7093311 V 3.6049504 h 0.465666 v 0.4656663 z"
         id="path9681" />
      <path
         d="m 51.515918,4.8368494 q 0.275166,-0.3005664 0.761999,-0.3005664 0.486833,0 0.761999,0.3005664 0.275167,0.2963331 0.275167,0.8424326 0,0.5460996 -0.275167,0.846666 -0.275166,0.2963331 -0.761999,0.2963331 -0.486833,0 -0.761999,-0.2963331 -0.275167,-0.3005664 -0.275167,-0.846666 0,-0.5460995 0.275167,-0.8424326 z m 0.177799,0.8424326 q 0,0.8043327 0.5842,0.8043327 0.584199,0 0.584199,-0.8043327 0,-0.8043326 -0.584199,-0.8043326 -0.5842,0 -0.5842,0.8043326 z"
         id="path9683" />
      <path
         d="m 55.469844,3.689617 -1.460499,3.2596639 h -0.4445 L 55.025344,3.689617 Z"
         id="path9685" />
      <path
         d="m 56.481607,4.0706167 v 0.8805326 h 1.312333 v 0.3640664 h -1.312333 v 1.0837324 h 1.396999 V 6.7799478 H 56.015941 V 3.689617 h 1.862665 v 0.3809997 z"
         id="path9687" />
      <path
         d="m 59.30947,5.9332818 h -0.0085 l -0.4826,0.846666 H 58.340038 L 59.059704,5.6581154 58.361205,4.5786163 h 0.495299 l 0.461433,0.8043326 h 0.0085 l 0.461433,-0.8043326 h 0.478366 l -0.698499,1.0794991 0.719666,1.1218324 h -0.4953 z"
         id="path9689" />
      <path
         d="m 60.985856,5.4760822 h 1.020232 q -0.0127,-0.6095995 -0.474133,-0.6095995 -0.249766,0 -0.385233,0.1439332 -0.135466,0.1439332 -0.160866,0.4656663 z m 0,0.3301997 q 0.0381,0.6857994 0.694266,0.6857994 0.283633,0 0.613832,-0.1354665 v 0.372533 q -0.351366,0.093133 -0.656166,0.093133 -0.529166,0 -0.817032,-0.2878665 -0.283633,-0.2878664 -0.283633,-0.8551326 0,-0.5672662 0.253999,-0.8551326 0.258234,-0.2878664 0.740833,-0.2878664 0.4572,0 0.681566,0.2751664 0.2286,0.2709331 0.2286,0.846666 0,0.059267 -0.0127,0.1481665 z"
         id="path9691" />
      <path
         d="m 63.356518,4.9553826 0.0085,0.00423 q 0.254,-0.2539998 0.715433,-0.2539998 0.469899,0 0.740832,0.2751664 0.275167,0.2751664 0.275167,0.7408327 0,0.5164662 -0.3048,0.808566 -0.3048,0.2920998 -0.817033,0.2920998 -1.121832,0 -1.121832,-1.3969989 0,-0.8932326 0.338666,-1.3334988 0.338667,-0.4444997 0.973666,-0.4444997 0.3175,0 0.592666,0.084667 v 0.4021663 q -0.266699,-0.1058332 -0.592666,-0.1058332 -0.330199,0 -0.550333,0.2412998 -0.215899,0.2412998 -0.258233,0.6857994 z m 0.618066,1.4858988 q 0.309033,0 0.4826,-0.1820332 0.173567,-0.1862665 0.173567,-0.5376329 0,-0.3047997 -0.182034,-0.4825996 -0.1778,-0.1820332 -0.474133,-0.1820332 -0.287866,0 -0.469899,0.1862666 -0.1778,0.1820331 -0.1778,0.4783662 0,0.3301997 0.182033,0.5249329 0.182033,0.1947332 0.465666,0.1947332 z"
         id="path9693" />
      <path
         d="M 65.634044,6.7799478 V 3.689617 h 0.4572 l 1.320799,2.3071647 h 0.0085 V 3.689617 h 0.4572 v 3.0903308 h -0.4572 L 66.09971,4.472783 h -0.0085 v 2.3071648 z"
         id="path9695" />
      <path
         d="m 69.84197,6.4412814 q 0.338667,0 0.6985,-0.1100666 v 0.4063997 q -0.3556,0.084667 -0.740833,0.084667 -0.643466,0 -1.032932,-0.4148664 -0.385233,-0.4148663 -0.385233,-1.1726323 0,-0.7492994 0.372533,-1.168399 0.376766,-0.4190997 1.045632,-0.4190997 0.385233,0 0.719666,0.084667 V 4.13835 q -0.2159,-0.067733 -0.3429,-0.0889 -0.127,-0.021167 -0.334433,-0.021167 -0.457199,0 -0.723899,0.3174997 -0.262467,0.3132664 -0.262467,0.8889993 0,0.5757328 0.270934,0.8932326 0.270933,0.3132664 0.715432,0.3132664 z"
         id="path9697" />
      <path
         d="m 71.023061,3.689617 h 2.201332 V 4.0790834 H 72.35656 V 6.7799478 H 71.890894 V 4.0790834 h -0.867833 z"
         id="path9699" />
      <path
         d="m 73.516486,4.8368494 q 0.275166,-0.3005664 0.761999,-0.3005664 0.486833,0 0.762,0.3005664 0.275166,0.2963331 0.275166,0.8424326 0,0.5460996 -0.275166,0.846666 -0.275167,0.2963331 -0.762,0.2963331 -0.486833,0 -0.761999,-0.2963331 -0.275166,-0.3005664 -0.275166,-0.846666 0,-0.5460995 0.275166,-0.8424326 z m 0.1778,0.8424326 q 0,0.8043327 0.584199,0.8043327 0.5842,0 0.5842,-0.8043327 0,-0.8043326 -0.5842,-0.8043326 -0.584199,0 -0.584199,0.8043326 z"
         id="path9701" />
      <path
         d="m 75.94641,4.8368494 q 0.275166,-0.3005664 0.761999,-0.3005664 0.486833,0 0.762,0.3005664 0.275166,0.2963331 0.275166,0.8424326 0,0.5460996 -0.275166,0.846666 -0.275167,0.2963331 -0.762,0.2963331 -0.486833,0 -0.761999,-0.2963331 -0.275166,-0.3005664 -0.275166,-0.846666 0,-0.5460995 0.275166,-0.8424326 z m 0.1778,0.8424326 q 0,0.8043327 0.584199,0.8043327 0.5842,0 0.5842,-0.8043327 0,-0.8043326 -0.5842,-0.8043326 -0.584199,0 -0.584199,0.8043326 z"
         id="path9703" />
      <path
         d="M 78.355165,6.7799478 V 3.6049504 h 0.465666 v 3.1749974 z"
         id="path9705" />
      <path
         d="M 81.314261,3.689617 79.853762,6.9492809 H 79.409263 L 80.869761,3.689617 Z"
         id="path9707" />
    </g>
  </g>
</svg>
