<?xml version="1.0" encoding="UTF-8" standalone="no"?>
<!-- Created with Inkscape (http://www.inkscape.org/) -->

<svg
   width="256"
   height="192"
   viewBox="0 0 67.733332 50.799999"
   version="1.1"
   id="svg5"
   inkscape:version="1.1.1 (3bf5ae0d25, 2021-09-20)"
   sodipodi:docname="modal_error.svg"
   xmlns:inkscape="http://www.inkscape.org/namespaces/inkscape"
   xmlns:sodipodi="http://sodipodi.sourceforge.net/DTD/sodipodi-0.dtd"
   xmlns="http://www.w3.org/2000/svg"
   xmlns:svg="http://www.w3.org/2000/svg">
  <sodipodi:namedview
     id="namedview7"
     pagecolor="#ffffff"
     bordercolor="#666666"
     borderopacity="1.0"
     inkscape:pageshadow="2"
     inkscape:pageopacity="0.0"
     inkscape:pagecheckerboard="0"
     inkscape:document-units="px"
     showgrid="true"
     units="px"
     inkscape:snap-page="true"
     inkscape:zoom="2"
     inkscape:cx="72.250001"
     inkscape:cy="70.750001"
     inkscape:window-width="1920"
     inkscape:window-height="1017"
     inkscape:window-x="-8"
     inkscape:window-y="-8"
     inkscape:window-maximized="1"
     inkscape:current-layer="layer1"
     inkscape:snap-text-baseline="true">
    <inkscape:grid
       type="xygrid"
       id="grid925"
       spacingx="1.0583333"
       spacingy="1.0583333"
       empspacing="4" />
  </sodipodi:namedview>
  <defs
     id="defs2" />
  <g
     inkscape:label="Layer 1"
     inkscape:groupmode="layer"
     id="layer1">
    <rect
       style="fill:#f6f6f6;fill-rule:evenodd;stroke:none;stroke-width:2.11667;stroke-linejoin:miter;paint-order:stroke fill markers;fill-opacity:1"
       id="rect1226"
       width="67.73333"
       height="50.799999"
       x="0"
       y="0" />
    <rect
       style="fill:#6273c5;fill-opacity:1;fill-rule:evenodd;stroke:none;stroke-width:2.11667;stroke-linejoin:miter;paint-order:stroke fill markers"
       id="rect1272"
       width="65.616669"
       height="48.683334"
       x="1.0583333"
       y="1.0583333" />
    <rect
       style="fill:#ffaa00;fill-opacity:1;fill-rule:evenodd;stroke:none;stroke-width:2.11667;stroke-linejoin:miter;paint-order:stroke fill markers"
       id="rect1398"
       width="63.5"
       height="40.216667"
       x="2.1166666"
       y="8.4666662" />
    <g
       aria-label="ERROR"
       id="text3053"
       style="font-size:6.35px;line-height:1.25;font-family:ExeChipFont;-inkscape-font-specification:ExeChipFont;text-align:center;text-anchor:middle;fill:#f6f6f6;stroke-width:0.264583">
      <path
         d="m 25.042397,5.3247396 h 1.562696 V 4.2829427 H 25.042397 V 3.7620443 c 0,-0.3348633 0.186036,-0.5208984 0.520899,-0.5208984 h 1.562695 V 2.199349 h -2.083594 c -0.669726,0 -1.041796,0.3720703 -1.041796,1.0417969 V 3.7620443 5.845638 6.3665364 c 0,0.6697266 0.37207,1.0417969 1.041796,1.0417969 h 2.083594 V 6.3665364 h -1.562695 c -0.334863,0 -0.520899,-0.1860351 -0.520899,-0.5208984 z"
         id="path15104" />
      <path
         d="m 30.238979,3.7620443 c 0,0.3348633 -0.186035,0.5208984 -0.520898,0.5208984 H 29.197183 V 3.2411459 h 0.520898 c 0.334863,0 0.520898,0.1984375 0.520898,0.5208984 z m -1.041796,1.5626953 h 0.520898 c 0.334863,0 0.520898,0.1860351 0.520898,0.5208984 v 1.5626953 h 1.041797 V 5.3247396 c 0,-0.3348633 -0.186035,-0.5208984 -0.520898,-0.5208984 0.334863,0 0.520898,-0.1860352 0.520898,-0.5208985 V 3.7620443 3.2411459 c 0,-0.6697266 -0.37207,-1.0417969 -1.041797,-1.0417969 h -2.083593 v 5.2089843 h 1.041797 z"
         id="path15106" />
      <path
         d="m 34.393765,3.7620443 c 0,0.3348633 -0.186036,0.5208984 -0.520899,0.5208984 H 33.351968 V 3.2411459 h 0.520898 c 0.334863,0 0.520899,0.1984375 0.520899,0.5208984 z m -1.041797,1.5626953 h 0.520898 c 0.334863,0 0.520899,0.1860351 0.520899,0.5208984 v 1.5626953 h 1.041796 V 5.3247396 c 0,-0.3348633 -0.186035,-0.5208984 -0.520898,-0.5208984 0.334863,0 0.520898,-0.1860352 0.520898,-0.5208985 V 3.7620443 3.2411459 c 0,-0.6697266 -0.37207,-1.0417969 -1.041796,-1.0417969 h -2.083594 v 5.2089843 h 1.041797 z"
         id="path15108" />
      <path
         d="m 37.506753,3.7620443 c 0,-0.3348633 0.186035,-0.5208984 0.520898,-0.5208984 0.334864,0 0.520899,0.1860351 0.520899,0.5208984 V 5.845638 c 0,0.3348633 -0.186035,0.5208984 -0.520899,0.5208984 -0.334863,0 -0.520898,-0.1860351 -0.520898,-0.5208984 z M 38.54855,2.199349 h -1.041797 c -0.663525,0 -1.041797,0.3720703 -1.041797,1.0417969 V 3.7620443 5.845638 6.3665364 c 0,0.6697266 0.37207,1.0417969 1.041797,1.0417969 h 1.041797 c 0.663525,0 1.041797,-0.3720703 1.041797,-1.0417969 V 5.845638 3.7620443 3.2411459 c 0,-0.6697266 -0.372071,-1.0417969 -1.041797,-1.0417969 z"
         id="path15110" />
      <path
         d="m 42.703335,3.7620443 c 0,0.3348633 -0.186035,0.5208984 -0.520899,0.5208984 H 41.661538 V 3.2411459 h 0.520898 c 0.334864,0 0.520899,0.1984375 0.520899,0.5208984 z m -1.041797,1.5626953 h 0.520898 c 0.334864,0 0.520899,0.1860351 0.520899,0.5208984 v 1.5626953 h 1.041797 V 5.3247396 c 0,-0.3348633 -0.186035,-0.5208984 -0.520899,-0.5208984 0.334864,0 0.520899,-0.1860352 0.520899,-0.5208985 V 3.7620443 3.2411459 c 0,-0.6697266 -0.372071,-1.0417969 -1.041797,-1.0417969 h -2.083594 v 5.2089843 h 1.041797 z"
         id="path15112" />
    </g>
  </g>
</svg>
