<?xml version="1.0" encoding="UTF-8" standalone="no"?>
<!-- Created with Inkscape (http://www.inkscape.org/) -->

<svg
   width="256"
   height="192"
   viewBox="0 0 67.733332 50.799999"
   version="1.1"
   id="svg5"
   inkscape:version="1.1.1 (3bf5ae0d25, 2021-09-20)"
   sodipodi:docname="modal.svg"
   xmlns:inkscape="http://www.inkscape.org/namespaces/inkscape"
   xmlns:sodipodi="http://sodipodi.sourceforge.net/DTD/sodipodi-0.dtd"
   xmlns="http://www.w3.org/2000/svg"
   xmlns:svg="http://www.w3.org/2000/svg">
  <sodipodi:namedview
     id="namedview7"
     pagecolor="#ffffff"
     bordercolor="#666666"
     borderopacity="1.0"
     inkscape:pageshadow="2"
     inkscape:pageopacity="0.0"
     inkscape:pagecheckerboard="0"
     inkscape:document-units="px"
     showgrid="true"
     units="px"
     inkscape:snap-page="true"
     inkscape:zoom="2.8284271"
     inkscape:cx="135.94128"
     inkscape:cy="70.533902"
     inkscape:window-width="1920"
     inkscape:window-height="1017"
     inkscape:window-x="-8"
     inkscape:window-y="-8"
     inkscape:window-maximized="1"
     inkscape:current-layer="layer1">
    <inkscape:grid
       type="xygrid"
       id="grid925"
       spacingx="1.0583333"
       spacingy="1.0583333"
       empspacing="4" />
  </sodipodi:namedview>
  <defs
     id="defs2" />
  <g
     inkscape:label="Layer 1"
     inkscape:groupmode="layer"
     id="layer1">
    <rect
       style="fill:#10526a;fill-rule:evenodd;stroke:none;stroke-width:2.11667;stroke-linejoin:miter;paint-order:stroke fill markers;fill-opacity:1"
       id="rect1226"
       width="67.73333"
       height="50.799999"
       x="0"
       y="0" />
    <rect
       style="fill:#acc5de;fill-opacity:1;fill-rule:evenodd;stroke:none;stroke-width:2.11667;stroke-linejoin:miter;paint-order:stroke fill markers"
       id="rect1272"
       width="65.616669"
       height="48.683334"
       x="1.0583333"
       y="1.0583333" />
    <rect
       style="fill:#10526a;fill-opacity:1;fill-rule:evenodd;stroke:none;stroke-width:2.11667;stroke-linejoin:miter;paint-order:stroke fill markers"
       id="rect1398"
       width="63.5"
       height="40.216667"
       x="2.1166666"
       y="8.4666662" />
    <g
       aria-label="INFORMATION"
       id="text4166"
       style="font-size:6.35px;line-height:1.25;font-family:ExeChipFont;-inkscape-font-specification:ExeChipFont;text-align:center;text-anchor:middle;fill:#f6f6f6;stroke-width:0.264583">
      <path
         d="m 12.578042,7.4083333 h 1.041797 V 2.199349 h -1.041797 z"
         id="path3075" />
      <path
         d="m 17.774624,7.4083333 h 1.041797 V 3.2411459 c 0,-0.6697266 -0.37207,-1.0417969 -1.041797,-1.0417969 H 15.69103 v 5.2089843 h 1.041797 V 3.2411459 h 0.520899 c 0.334863,0 0.520898,0.1860351 0.520898,0.5208984 z"
         id="path3077" />
      <path
         d="M 20.887612,7.4083333 V 5.845638 h 1.562696 V 4.8038412 H 20.887612 V 3.7620443 c 0,-0.3348633 0.186036,-0.5208984 0.520899,-0.5208984 h 1.562695 V 2.199349 h -2.083594 c -0.669726,0 -1.041796,0.3720703 -1.041796,1.0417969 v 4.1671874 z"
         id="path3079" />
      <path
         d="m 25.042398,3.7620443 c 0,-0.3348633 0.186035,-0.5208984 0.520898,-0.5208984 0.334863,0 0.520898,0.1860351 0.520898,0.5208984 V 5.845638 c 0,0.3348633 -0.186035,0.5208984 -0.520898,0.5208984 -0.334863,0 -0.520898,-0.1860351 -0.520898,-0.5208984 z M 26.084194,2.199349 h -1.041796 c -0.663526,0 -1.041797,0.3720703 -1.041797,1.0417969 V 3.7620443 5.845638 6.3665364 c 0,0.6697266 0.37207,1.0417969 1.041797,1.0417969 h 1.041796 c 0.663526,0 1.041797,-0.3720703 1.041797,-1.0417969 V 5.845638 3.7620443 3.2411459 c 0,-0.6697266 -0.37207,-1.0417969 -1.041797,-1.0417969 z"
         id="path3081" />
      <path
         d="m 30.23898,3.7620443 c 0,0.3348633 -0.186036,0.5208984 -0.520899,0.5208984 H 29.197183 V 3.2411459 h 0.520898 c 0.334863,0 0.520899,0.1984375 0.520899,0.5208984 z m -1.041797,1.5626953 h 0.520898 c 0.334863,0 0.520899,0.1860351 0.520899,0.5208984 v 1.5626953 h 1.041797 V 5.3247396 c 0,-0.3348633 -0.186036,-0.5208984 -0.520899,-0.5208984 0.334863,0 0.520899,-0.1860352 0.520899,-0.5208985 V 3.7620443 3.2411459 c 0,-0.6697266 -0.372071,-1.0417969 -1.041797,-1.0417969 h -2.083594 v 5.2089843 h 1.041797 z"
         id="path3083" />
      <path
         d="m 34.393765,7.4083333 h 1.041797 V 3.2411459 c 0,-0.6697266 -0.372071,-1.0417969 -1.041797,-1.0417969 H 32.310171 V 7.4083333 H 32.83107 V 3.2411459 h 0.520898 v 4.1671874 h 0.520898 V 3.2411459 c 0.334864,0 0.520899,0.1860351 0.520899,0.5208984 z"
         id="path3085" />
      <path
         d="m 36.464956,7.4083333 h 1.041797 V 5.845638 h 1.041797 v 1.5626953 h 1.041797 V 3.2411459 c 0,-0.6697266 -0.37207,-1.0417969 -1.041797,-1.0417969 h -1.041797 c -0.669726,0 -1.041797,0.3720703 -1.041797,1.0417969 z M 38.54855,4.8038412 H 37.506753 V 3.7620443 c 0,-0.3348633 0.186035,-0.5208984 0.520899,-0.5208984 0.334863,0 0.520898,0.1860351 0.520898,0.5208984 z"
         id="path3087" />
      <path
         d="m 41.661538,7.4083333 h 1.041797 V 3.2411459 h 1.041797 V 2.199349 h -3.125391 v 1.0417969 h 1.041797 z"
         id="path3089" />
      <path
         d="M 45.816323,7.4083333 H 46.85812 V 2.199349 h -1.041797 z"
         id="path3091" />
      <path
         d="m 49.971109,3.7620443 c 0,-0.3348633 0.186035,-0.5208984 0.520898,-0.5208984 0.334863,0 0.520898,0.1860351 0.520898,0.5208984 V 5.845638 c 0,0.3348633 -0.186035,0.5208984 -0.520898,0.5208984 -0.334863,0 -0.520898,-0.1860351 -0.520898,-0.5208984 z M 51.012905,2.199349 h -1.041796 c -0.663526,0 -1.041797,0.3720703 -1.041797,1.0417969 V 3.7620443 5.845638 6.3665364 c 0,0.6697266 0.37207,1.0417969 1.041797,1.0417969 h 1.041796 c 0.663526,0 1.041797,-0.3720703 1.041797,-1.0417969 V 5.845638 3.7620443 3.2411459 c 0,-0.6697266 -0.37207,-1.0417969 -1.041797,-1.0417969 z"
         id="path3093" />
      <path
         d="m 55.167691,7.4083333 h 1.041796 V 3.2411459 c 0,-0.6697266 -0.37207,-1.0417969 -1.041796,-1.0417969 h -2.083594 v 5.2089843 h 1.041797 V 3.2411459 h 0.520898 c 0.334863,0 0.520899,0.1860351 0.520899,0.5208984 z"
         id="path3095" />
    </g>
  </g>
</svg>
