<?xml version="1.0" encoding="UTF-8" standalone="no"?>
<!-- Generator: Adobe Illustrator 24.2.3, SVG Export Plug-In . SVG Version: 6.00 Build 0)  -->

<svg
   version="1.1"
   id="Layer_1"
   x="0px"
   y="0px"
   viewBox="0 0 400 400"
   style="enable-background:new 0 0 400 400;"
   xml:space="preserve"
   sodipodi:docname="X.svg"
   inkscape:version="1.2.2 (732a01da63, 2022-12-09)"
   xmlns:inkscape="http://www.inkscape.org/namespaces/inkscape"
   xmlns:sodipodi="http://sodipodi.sourceforge.net/DTD/sodipodi-0.dtd"
   xmlns="http://www.w3.org/2000/svg"
   xmlns:svg="http://www.w3.org/2000/svg"><defs
   id="defs13" /><sodipodi:namedview
   id="namedview11"
   pagecolor="#ffffff"
   bordercolor="#666666"
   borderopacity="1.0"
   inkscape:showpageshadow="2"
   inkscape:pageopacity="0.0"
   inkscape:pagecheckerboard="0"
   inkscape:deskcolor="#d1d1d1"
   showgrid="false"
   inkscape:zoom="1.4796209"
   inkscape:cx="115.23222"
   inkscape:cy="206.80973"
   inkscape:window-width="1920"
   inkscape:window-height="1017"
   inkscape:window-x="-8"
   inkscape:window-y="-8"
   inkscape:window-maximized="1"
   inkscape:current-layer="Layer_1" />
<style
   type="text/css"
   id="style2">
	.st0{fill:#1D9BF0;}
	.st1{fill:#FFFFFF;}
</style>
<g
   id="Dark_Blue"
   style="fill:#000000">
	<path
   class="st0"
   d="M350,400H50c-27.6,0-50-22.4-50-50V50C0,22.4,22.4,0,50,0h300c27.6,0,50,22.4,50,50v300   C400,377.6,377.6,400,350,400z"
   id="path4"
   style="fill:#000000" />
</g>

<path
   d="m 220.32193,181.92109 83.2522,-96.773938 H 283.84602 L 211.55815,169.17461 153.82203,85.147152 H 87.230267 L 174.5386,212.21155 87.230267,313.69389 h 19.729223 l 76.33786,-88.73585 60.97356,88.73585 h 66.59177 l -90.5456,-131.7728 z M 193.30005,213.33102 184.4539,200.67827 114.06821,99.999027 h 30.30293 l 56.80208,81.251363 8.84615,12.65274 73.83597,105.61432 H 253.5524 l -60.25235,-86.18159 z"
   fill="#ffffff"
   id="path242"
   style="stroke-width:0.18636" /></svg>
